<?xml version="1.0" encoding="UTF-8" standalone="no"?><!-- Generator: Gravit.io --><svg xmlns="http://www.w3.org/2000/svg" xmlns:xlink="http://www.w3.org/1999/xlink" style="isolation:isolate" viewBox="0 0 40 60" width="40pt" height="60pt"><defs><clipPath id="_clipPath_X6Yh4MtJLSlkV6Dm5qtIWc6LpJ63ON2k"><rect width="40" height="60"/></clipPath></defs><g clip-path="url(#_clipPath_X6Yh4MtJLSlkV6Dm5qtIWc6LpJ63ON2k)"><path d=" M 28.3 7.034 L 6.3 7.077 L 6.3 53.035 L 38.3 53.035 L 38.3 17.035 L 28.3 7.034 L 28.3 7.034 L 28.3 7.034 Z  M 13.87 31.368 L 16.525 31.368 L 17.242 28.582 L 14.599 28.582 L 13.87 31.368 L 13.87 31.368 Z  M 35.047 22.938 L 35.047 22.938 Q 35.334 22.938 35.489 23.039 L 35.489 23.039 L 35.489 23.039 Q 35.645 23.141 35.722 23.404 L 35.722 23.404 L 35.722 23.404 Q 35.8 23.667 35.8 24.169 L 35.8 24.169 L 35.8 24.169 Q 35.8 24.755 35.692 25.03 L 35.692 25.03 L 30.706 36.844 L 30.706 36.844 Q 30.587 37.119 30.294 37.257 L 30.294 37.257 L 30.294 37.257 Q 30.001 37.394 29.594 37.394 L 29.594 37.394 L 29.594 37.394 Q 29.247 37.394 28.912 37.311 L 28.912 37.311 L 28.912 37.311 Q 28.374 37.191 28.034 36.922 L 28.034 36.922 L 28.034 36.922 Q 27.693 36.653 27.693 36.294 L 27.693 36.294 L 27.693 36.294 Q 27.693 36.151 27.765 35.971 L 27.765 35.971 L 32.261 25.509 L 27.884 25.509 L 27.884 27.804 L 27.884 27.804 Q 27.884 28.223 27.609 28.39 L 27.609 28.39 L 27.609 28.39 Q 27.334 28.558 26.593 28.558 L 26.593 28.558 L 26.593 28.558 Q 25.827 28.558 25.481 28.384 L 25.481 28.384 L 25.481 28.384 Q 25.134 28.211 25.134 27.804 L 25.134 27.804 L 25.134 23.715 L 25.134 23.715 Q 25.134 23.296 25.319 23.117 L 25.319 23.117 L 25.319 23.117 Q 25.505 22.938 25.911 22.938 L 25.911 22.938 L 35.047 22.938 L 35.047 22.938 Z  M 21.535 25.891 L 21.535 25.891 Q 21.822 25.891 21.977 25.999 L 21.977 25.999 L 21.977 25.999 Q 22.133 26.106 22.21 26.393 L 22.21 26.393 L 22.21 26.393 Q 22.288 26.68 22.288 27.242 L 22.288 27.242 L 22.288 27.242 Q 22.288 27.804 22.21 28.091 L 22.21 28.091 L 22.21 28.091 Q 22.133 28.378 21.977 28.48 L 21.977 28.48 L 21.977 28.48 Q 21.822 28.582 21.535 28.582 L 21.535 28.582 L 19.669 28.582 L 18.94 31.368 L 20.459 31.368 L 20.459 31.368 Q 20.746 31.368 20.901 31.475 L 20.901 31.475 L 20.901 31.475 Q 21.056 31.583 21.134 31.87 L 21.134 31.87 L 21.134 31.87 Q 21.212 32.157 21.212 32.719 L 21.212 32.719 L 21.212 32.719 Q 21.212 33.281 21.134 33.568 L 21.134 33.568 L 21.134 33.568 Q 21.056 33.855 20.901 33.957 L 20.901 33.957 L 20.901 33.957 Q 20.746 34.058 20.459 34.058 L 20.459 34.058 L 18.246 34.058 L 17.481 37 L 17.481 37 Q 17.433 37.191 17.176 37.293 L 17.176 37.293 L 17.176 37.293 Q 16.919 37.394 16.56 37.394 L 16.56 37.394 L 16.56 37.394 Q 16.022 37.394 15.586 37.203 L 15.586 37.203 L 15.586 37.203 Q 15.149 37.012 15.149 36.701 L 15.149 36.701 L 15.149 36.701 Q 15.149 36.629 15.161 36.593 L 15.161 36.593 L 15.819 34.058 L 13.176 34.058 L 12.411 37 L 12.411 37 Q 12.363 37.191 12.106 37.293 L 12.106 37.293 L 12.106 37.293 Q 11.849 37.394 11.49 37.394 L 11.49 37.394 L 11.49 37.394 Q 10.952 37.394 10.516 37.203 L 10.516 37.203 L 10.516 37.203 Q 10.079 37.012 10.079 36.701 L 10.079 36.701 L 10.079 36.701 Q 10.079 36.629 10.091 36.593 L 10.091 36.593 L 10.749 34.058 L 9.553 34.058 L 9.553 34.058 Q 9.266 34.058 9.111 33.957 L 9.111 33.957 L 9.111 33.957 Q 8.955 33.855 8.878 33.568 L 8.878 33.568 L 8.878 33.568 Q 8.8 33.281 8.8 32.719 L 8.8 32.719 L 8.8 32.719 Q 8.8 32.157 8.878 31.87 L 8.878 31.87 L 8.878 31.87 Q 8.955 31.583 9.111 31.475 L 9.111 31.475 L 9.111 31.475 Q 9.266 31.368 9.553 31.368 L 9.553 31.368 L 11.455 31.368 L 12.172 28.582 L 10.629 28.582 L 10.629 28.582 Q 10.343 28.582 10.187 28.48 L 10.187 28.48 L 10.187 28.48 Q 10.032 28.378 9.954 28.091 L 9.954 28.091 L 9.954 28.091 Q 9.876 27.804 9.876 27.242 L 9.876 27.242 L 9.876 27.242 Q 9.876 26.68 9.954 26.393 L 9.954 26.393 L 9.954 26.393 Q 10.032 26.106 10.187 25.999 L 10.187 25.999 L 10.187 25.999 Q 10.343 25.891 10.629 25.891 L 10.629 25.891 L 12.878 25.891 L 13.607 23.069 L 13.607 23.069 Q 13.655 22.878 13.912 22.776 L 13.912 22.776 L 13.912 22.776 Q 14.169 22.675 14.528 22.675 L 14.528 22.675 L 14.528 22.675 Q 15.066 22.675 15.502 22.866 L 15.502 22.866 L 15.502 22.866 Q 15.939 23.057 15.939 23.368 L 15.939 23.368 L 15.939 23.368 Q 15.939 23.44 15.927 23.476 L 15.927 23.476 L 15.293 25.891 L 17.947 25.891 L 18.677 23.069 L 18.677 23.069 Q 18.725 22.878 18.982 22.776 L 18.982 22.776 L 18.982 22.776 Q 19.239 22.675 19.598 22.675 L 19.598 22.675 L 19.598 22.675 Q 20.136 22.675 20.572 22.866 L 20.572 22.866 L 20.572 22.866 Q 21.009 23.057 21.009 23.368 L 21.009 23.368 L 21.009 23.368 Q 21.009 23.44 20.997 23.476 L 20.997 23.476 L 20.363 25.891 L 21.535 25.891 L 21.535 25.891 Z " fill-rule="evenodd" fill="rgb(255,255,255)"/></g></svg>